<?xml version="1.0" encoding="utf-8"?>
<!-- Generator: Adobe Illustrator 23.0.3, SVG Export Plug-In . SVG Version: 6.00 Build 0)  -->
<svg version="1.1" id="Capa_1" xmlns="http://www.w3.org/2000/svg" xmlns:xlink="http://www.w3.org/1999/xlink" x="0px" y="0px"
	 viewBox="0 0 1200 1200" enable-background="new 0 0 1200 1200" xml:space="preserve">
<path fill="#283359" d="M600,50C296.243,50,50,296.243,50,600s246.243,550,550,550s550-246.243,550-550S903.757,50,600,50z
	 M646.626,332.782c13.614-74.058,65.228-126.635,115.284-117.434c50.056,9.201,79.599,76.697,65.985,150.755
	c-13.613,74.058-65.228,126.635-115.284,117.434C662.555,474.336,633.012,406.84,646.626,332.782z M438.09,215.348
	c50.056-9.201,101.671,43.375,115.284,117.434c13.614,74.058-15.929,141.553-65.985,150.755s-101.671-43.375-115.284-117.434
	S388.034,224.55,438.09,215.348z M232.736,584.649c-18.599-55.779-3.114-111.188,34.588-123.759
	c37.701-12.571,83.342,22.456,101.941,78.235c18.599,55.779,3.114,111.188-34.588,123.759
	C296.975,675.455,251.335,640.428,232.736,584.649z M809.171,979.389c-62.539,19.831-134.264-11.859-173.597-29.487
	c-23.589-10.572-54.503-10.226-77.322,0c-39.334,17.628-111.057,49.317-173.597,29.486
	c-100.248-31.788-107.025-148.121-48.799-203.558c60.571-57.671,72.014-78.916,98.295-146.766
	c28.292-73.043,95.739-109.68,163.131-109.604c67.067,0.075,134.081,36.51,162.394,109.607
	c26.28,67.848,37.724,89.093,98.294,146.764C916.195,831.268,909.419,947.601,809.171,979.389z M967.264,584.649
	c-18.599,55.779-64.24,90.806-101.941,78.235c-37.701-12.571-53.187-67.98-34.588-123.759s64.24-90.806,101.941-78.235
	C970.378,473.461,985.863,528.87,967.264,584.649z"/>
</svg>
